<?xml version="1.0" encoding="utf-8"?>
<!-- Svg Vector Icons : http://www.onlinewebfonts.com/icon -->
<!DOCTYPE svg PUBLIC "-//W3C//DTD SVG 1.1//EN" "http://www.w3.org/Graphics/SVG/1.1/DTD/svg11.dtd">
<svg version="1.1" xmlns="http://www.w3.org/2000/svg" xmlns:xlink="http://www.w3.org/1999/xlink" x="0px" y="0px" viewBox="0 0 256 256" enable-background="new 0 0 256 256" xml:space="preserve">
<metadata> Svg Vector Icons : http://www.onlinewebfonts.com/icon </metadata>
<g><g><g><path fill="#000000" d="M116.7,10.3c-23,2.3-45.1,11.4-62.8,25.7c-6,4.8-15.7,14.8-20.1,20.7c-12.4,16.5-20.1,35.4-23.1,56.8c-0.8,5.4-0.8,23.6,0,29.1c3.2,22.7,12,43.1,25.7,60c4.5,5.6,14.7,15.4,20.2,19.5c16.8,12.6,35.5,20.2,56.9,23.3c5.5,0.8,23.6,0.8,29.1,0c21.4-3,40.2-10.8,56.9-23.3c5.5-4.1,15.7-13.9,20.2-19.5c11.5-14.1,20.5-33,24-50.1c2-9.8,2.4-13.6,2.4-24.5c0-10.9-0.4-14.7-2.4-24.5c-3.5-17.2-12.5-36-24-50.1c-4.5-5.6-14.7-15.4-20.2-19.5c-16.3-12.2-34.5-19.8-54.9-23C138.8,10.1,122.6,9.6,116.7,10.3z M138.2,17.7c25.5,2.3,49.5,13.5,67.7,31.6c17.8,17.7,28.3,38.8,32.1,64.7c0.8,5.5,0.8,22.7,0,28.2c-2.5,17.2-8.4,33-17,46.2c-4.9,7.5-8.5,12-14.6,18.1c-17.3,17.3-38.8,27.9-64.2,31.6c-5.5,0.8-22.7,0.8-28.2,0c-17.6-2.6-32.7-8.1-46.2-17c-7.7-5.1-12.1-8.6-18.5-15.1c-21.6-21.8-33.2-51.5-31.9-82c1.2-28.5,12.3-54.1,32.4-74.1c19-19,42.1-29.7,70-32.3C123.5,17.1,133.3,17.2,138.2,17.7z"/><path fill="#000000" d="M148.5,69c-7.5,1.1-19.9,6-20.4,8.1c-0.3,1.1,0.5,2.4,1.4,2.4c0.3,0,1.9-0.7,3.5-1.6c6.7-3.6,14.2-5.3,22.7-5.4c8.4,0,15.7,1.7,22.6,5.3c3.3,1.8,4.2,1.8,5,0.3c0.7-1.3-0.1-2.1-4.4-4.2C169.5,69.3,158.6,67.5,148.5,69z"/><path fill="#000000" d="M151.3,76.8c-5.2,0.5-11.4,2.3-15.7,4.5c-2.7,1.4-3.3,1.9-3.4,3c-0.3,2.2,1.3,2.3,5.8,0.2c6.4-3,9.9-3.7,17.9-3.7s11.8,0.8,17.8,3.7c4.6,2.2,6.4,2,5.6-0.8c-0.6-2.1-11.3-6.2-17.7-6.7c-1.7-0.1-3.7-0.3-4.6-0.4C156.2,76.5,153.6,76.6,151.3,76.8z"/><path fill="#000000" d="M152,84.7c-6.9,0.6-15.7,4.1-16,6.3c-0.1,0.6,0.2,1.2,1,1.8c1.1,0.7,1.3,0.6,4.5-0.9c5.2-2.4,8.6-3.2,14.5-3.2c5.7,0,9.3,0.8,14,3c3.4,1.6,4.9,1.8,5.5,0.6c0.6-1.2-0.4-2.6-2.7-3.8c-3-1.6-8.7-3.2-11.9-3.5c-1.7-0.2-3.5-0.3-4-0.4C156.4,84.3,154.1,84.5,152,84.7z"/><path fill="#000000" d="M149.4,93.2c-3.6,0.8-8.4,2.9-9,4c-0.6,1.1,0.2,2.7,1.4,2.7c0.5,0,2-0.5,3.3-1.1c3.8-1.7,6.7-2.3,11.1-2.2c3.9,0,6.4,0.6,11.8,2.9c1.8,0.8,3,0.2,3.2-1.6c0.1-1.1-0.1-1.3-2.8-2.6C162.9,92.6,155.6,91.8,149.4,93.2z"/><path fill="#000000" d="M150.8,101c-11.8,3-19.1,14.8-16.1,26.4c2.1,8.1,9.6,15.2,17,16.2l2.2,0.3v19.8v19.8h-6h-6V181c0-2.2,0.2-2.5,1.5-3.3c2.4-1.5,2.6-2.5,2.6-10.5c0-7.1,0-7.3-1.2-8.6c-0.6-0.8-1.7-1.7-2.4-2c-1-0.5-1.9-2.4-5-10.3c-2.1-5.3-4.1-9.8-4.4-10.1c-0.3-0.2-9.8-0.4-21-0.4H91.5l-0.6,1c-0.4,0.6-2.4,5.2-4.4,10.3c-2.1,5.1-4,9.3-4.3,9.4c-0.3,0.1-1.2,0.9-2,1.7l-1.5,1.5v7.7v7.7l1.8,1.8c1.7,1.7,1.8,2.1,1.8,4.1v2.3h-4.3c-3.9,0-4.4,0.1-5.1,1c-0.7,1-0.5,2.2,0.4,2.8c0.8,0.6,92.6,0.5,93.6-0.1c1.2-0.6,1.2-2.6,0-3.2c-0.5-0.2-2.7-0.5-4.8-0.5h-4v-19.9v-19.9h1.1c1.8,0,6.2-1.7,8.9-3.5c8.5-5.6,12.1-16.4,8.5-25.8c-2.1-5.7-7.7-11-13.4-13C159.9,100.5,153.9,100.2,150.8,101z M158.6,112.5c3.5,0.1,5.5,1.4,6.8,4.2c1.1,2.4,1.1,4.2,0,6.6c-1.4,3.2-3.2,4.1-8.6,4.3l-4.6,0.2l-0.2,3.6c-0.2,2.8-0.4,3.7-1,4.2c-0.6,0.4-1.1,0.4-1.6,0c-0.7-0.5-0.8-1.6-1-11.4c-0.1-8.8,0-11,0.6-11.5c0.4-0.5,1.5-0.6,3.7-0.5C154.3,112.3,157,112.4,158.6,112.5z M133.9,147.8c1.6,4.2,2.9,7.6,2.8,7.8c-0.1,0.1-11.3,0.1-24.7,0.1l-24.5-0.1l3-7.8l3-7.7l18.7,0.1l18.8,0.1L133.9,147.8z M94.2,165c2.2,2.1,0.6,6-2.3,6c-1.7,0-3.6-1.8-3.6-3.5c0-1.6,1.9-3.5,3.6-3.5C92.6,164,93.6,164.5,94.2,165z M134.8,165c2.2,2,0.7,6-2.2,6c-1.8,0-3.2-1.6-3.2-3.5C129.4,164.5,132.7,162.9,134.8,165z M129.8,181.6v1.8h-17.8H94.3v-1.8v-1.8h17.8h17.8V181.6z"/><path fill="#000000" d="M152,119.9v3.9h3.5c1.9,0,3.9-0.2,4.5-0.5c1.2-0.5,2.2-2.2,2.2-3.4c0-1.2-1-2.9-2.2-3.4c-0.6-0.3-2.6-0.5-4.5-0.5H152V119.9z"/></g></g></g>
</svg>