<?xml version="1.0" encoding="utf-8"?>
<!-- Svg Vector Icons : http://www.onlinewebfonts.com/icon -->
<!DOCTYPE svg PUBLIC "-//W3C//DTD SVG 1.1//EN" "http://www.w3.org/Graphics/SVG/1.1/DTD/svg11.dtd">
<svg version="1.1" xmlns="http://www.w3.org/2000/svg" xmlns:xlink="http://www.w3.org/1999/xlink" x="0px" y="0px" viewBox="0 0 256 256" enable-background="new 0 0 256 256" xml:space="preserve">
<metadata> Svg Vector Icons : http://www.onlinewebfonts.com/icon </metadata>
<g><g><g><path fill="#000000" d="M176.8,2.3c-7.7,0.8-15.8,2.6-24.2,5.3c-12.2,4-25,10.7-25,13.1c0,0.2,0.5,1.2,1.2,2.2c1.8,2.8,3.1,2.6,11-1.3c29.6-14.7,64.6-14.7,94.1-0.1c3.8,1.9,7.5,3.4,8.2,3.4c2.1,0,3.8-1.8,3.8-3.9c-0.1-1-0.4-2.2-0.8-2.5c-1.3-1.3-15.9-8.1-21.4-10.1c-7-2.4-14.3-4.3-20.9-5.3C196.4,2.1,183,1.7,176.8,2.3z"/><path fill="#000000" d="M177.6,19.2c-11.1,1.2-22,4.3-32.4,9.3c-7.4,3.6-9,5-8.5,7.5c0.8,4.1,3.4,4.6,8.9,1.6c7.7-4.3,19.1-8,28.9-9.6c6.2-1,20.4-0.8,26.8,0.3c8.1,1.4,16.7,4.2,24.4,7.9c7.8,3.8,9.8,4.1,11,1.5c1.6-3.5,0.1-5.3-8-9.2C212.4,20.6,194.8,17.4,177.6,19.2z"/><path fill="#000000" d="M178.9,35.9c-11.8,1.4-27.2,6.6-32.1,10.8c-2.9,2.4-2,6.7,1.5,7.4c1.3,0.3,2.6-0.2,6.9-2.3c10.8-5.4,20.2-7.6,31.9-7.6c12,0.1,21.9,2.4,32.6,7.7c5.2,2.6,6.5,2.7,8.4,0.8c1.7-1.7,1.4-4-0.7-6c-3.5-3.3-16.7-8.2-26.6-10C195.2,35.8,183.9,35.3,178.9,35.9z"/><path fill="#000000" d="M175.9,53.6c-7.5,1.3-18.3,5.4-21.1,7.9c-1.4,1.3-1.2,4.1,0.4,5.7c1.7,1.7,2.8,1.6,7-0.5c8.2-4.1,15.2-5.7,24.8-5.7s16.5,1.6,24.8,5.7c4.2,2.1,5.3,2.2,7,0.5c2-1.9,1.8-4.6-0.4-6.2c-3.7-2.7-13.1-6.1-20.8-7.5C192.2,52.6,181.3,52.6,175.9,53.6z"/><path fill="#000000" d="M180.4,69.6c-15.4,2.4-28.4,12-35,26c-3.1,6.6-4.1,10.6-4.5,17.6c-0.9,16.2,7,31.6,20.8,40.9c5,3.3,11.7,6,17.4,7l3.6,0.6v41.9v41.9h-12.6h-12.6v-5.1c0-4.9,0.1-5.2,1.3-5.8c2.2-1,5.2-4,6.1-6.1c0.9-1.9,1-3.7,1-16.8c0-13.2-0.1-14.9-1-16.8c-1.2-2.5-3.2-4.5-6.3-6.1l-2.3-1.2l-8.3-20.7c-4.6-11.6-8.7-21.1-9.2-21.4c-0.7-0.5-9.4-0.7-44.5-0.7c-39.2,0-43.7,0.1-44.5,0.8c-0.5,0.5-4.7,10.2-9.2,21.6c-8.1,20.3-8.3,20.7-10.2,21.7c-3,1.6-5.3,3.7-6.3,6c-0.9,1.9-1,3.7-1,16.8c0,13.1,0.1,14.9,1,16.8c0.9,2.2,3.9,5.1,6.1,6.1c1.2,0.6,1.3,0.8,1.3,5.8v5.1h-8.9c-11.1,0-12.6,0.5-12.6,4.5c0,0.7,0.6,1.9,1.3,2.6l1.3,1.3h98.7H210l1.1-1.2c1.7-1.8,1.6-4.7-0.2-6.1c-1.3-1-2.1-1.1-10.5-1.1h-9.1v-42v-42l2.8-0.3c4.1-0.5,12.3-3.5,16.8-6.1c5.3-3.1,13.6-11.6,16.5-16.8c1.2-2.2,2.9-6.2,3.9-8.9c1.5-4.4,1.7-5.9,1.9-12.2c0.2-6.1,0.1-8-0.9-12.2c-3.9-16.8-17.1-30.2-33.9-34.5C193.4,69.4,185,68.9,180.4,69.6z M198.3,95.3c3.8,1.4,7.3,4.6,9.1,8.3c1.3,2.5,1.5,3.6,1.5,7.2c-0.1,5.4-1.4,8.7-5,12.1c-4.4,4.1-6.3,4.7-16.1,4.9l-8.6,0.2v7.2c0,7.2,0,7.3-1.4,8.4c-1.8,1.4-3.5,1.4-5.2-0.1l-1.4-1.2l0.1-22.8c0-22.6,0.1-22.8,1.2-24c1.1-1.2,1.4-1.2,12-1.2C194.2,94.3,195.7,94.4,198.3,95.3z M140.2,169.2c3.6,8.9,6.6,16.5,6.7,16.8c0.2,0.5-10.5,0.7-52.4,0.7c-49.9,0-52.6-0.1-52.4-0.9c0.2-0.7,11-28.1,12.4-31.5l0.5-1.2h39.3h39.3L140.2,169.2z M54.3,204.8c3.2,1.3,5.1,5.2,4.3,8.5c-0.2,0.7-1.2,2.3-2.2,3.3c-1.7,1.8-1.9,1.9-4.9,1.9c-2.9,0-3.3-0.2-5.1-1.9c-3.7-3.6-2.7-9.2,1.9-11.6C50.5,203.8,52,203.8,54.3,204.8z M140.5,204.8c3.2,1.3,5.1,5.2,4.3,8.5c-0.2,0.7-1.2,2.3-2.2,3.3c-1.7,1.8-1.9,1.9-4.9,1.9c-3,0-3.3-0.1-5.1-2c-1.8-1.8-2-2.2-2-4.8c0-3.4,1.2-5.3,4-6.7C136.7,203.8,138.2,203.8,140.5,204.8z M132.4,241.3v4.2H94.6H56.7v-4.2v-4.2h37.8h37.8L132.4,241.3L132.4,241.3z"/><path fill="#000000" d="M179.2,110.9l0.2,8.3l6.8,0.2c8,0.2,10.5-0.5,12.7-3.4c3-3.9,1.8-9.8-2.4-12.2c-1.8-1.1-2.8-1.2-9.7-1.2h-7.7L179.2,110.9z"/></g></g></g>
</svg>